<svg xmlns="http://www.w3.org/2000/svg" width="64" height="64" viewBox="0 0 64 64">
  <path fill="#ED9111" fill-rule="evenodd" d="M38.8204668,32.0926683 C38.8204668,32.0926683 35.4108803,30.4690039 35.9127189,34.4303018 C35.9127189,34.4303018 37.1144584,35.5985031 38.5191206,36.3592496 C38.5191206,36.3592496 48.4963534,42.2531882 51.5535593,50.2742626 L46.5388181,54.1370821 C46.5388181,54.1370821 43.7841735,47.4319267 33.154429,42.3024275 C33.154429,42.3024275 26.485929,53.0698213 16.1101416,55 C16.1101416,55 13.5535593,49.0555911 13.5535593,48.5496578 C13.5535593,48.5496578 25.4834669,45.501748 26.2368324,34.4795411 C26.2368324,34.4795411 26.1857979,25.2890344 31.5006702,22.2411246 C31.5006702,22.2411246 34.2589601,20.565759 35.8616845,22.4430056 C35.8616845,22.4430056 37.1144584,24.9320498 37.5166584,25.7444975 C37.5166584,25.7444975 39.8217139,29.6553252 48.9957618,24.527057 L51.3032475,29.1493919 C51.3032475,29.1493919 47.9945147,32.4988921 42.6796425,32.4988921 C42.6796425,32.4988921 40.1740946,32.6035255 38.8204668,32.0926683 L38.8204668,32.0926683 Z M38.7961647,18.6762027 C35.0682205,18.6762027 32.0474678,15.6159831 32.0474678,11.8393323 C32.0474678,8.06391255 35.0682205,5 38.7961647,5 C42.525324,5 45.5472919,8.06268157 45.5472919,11.8393323 C45.5472919,15.6159831 42.525324,18.6762027 38.7961647,18.6762027 L38.7961647,18.6762027 Z"/>
</svg>
