<svg xmlns="http://www.w3.org/2000/svg" width="64" height="64" viewBox="0 0 64 64">
  <path fill="#979797" fill-rule="evenodd" d="M47.3889973,34.7835282 C47.3889973,40.274297 51.0140956,44.8707676 55.9902401,46.4732833 L56,46.6052062 C52.8670785,55.0913186 46.6068126,60.3765654 46.6068126,60.3765654 C43.2159514,63.925985 38.2607209,60.5487595 38.2607209,60.5487595 C34.347009,57.7783792 28.3488656,60.4626625 28.3488656,60.4626625 C23.7408079,63.6690826 20.4349971,60.3779541 20.4349971,60.3779541 C15.305483,56.6521745 10.78387,45.9997497 10.78387,45.9997497 C4.34932052,26.0793959 17.3913088,19.5846246 17.3913088,19.5846246 C23.7408079,15.3394854 32.4354668,21.3176745 32.4354668,21.3176745 C47.5688579,12.2066644 54.1944222,23.3312342 54.4147166,23.7089502 C50.2695561,25.7030685 47.3889973,29.8926612 47.3889973,34.7835282 L47.3889973,34.7835282 Z M32.0855053,17.9421646 C32.8690843,5.21230177 44.1724197,4 44.1724197,4 C44.8667654,17.0770283 32.0855053,17.9421646 32.0855053,17.9421646 L32.0855053,17.9421646 Z"/>
</svg>
