<svg xmlns="http://www.w3.org/2000/svg" width="64" height="64" viewBox="0 0 64 64">
  <g fill="none" fill-rule="evenodd">
    <polygon fill="#FFAF40" points="14 5 32 3 50 5 50 23 14 23"/>
    <polygon fill="#ED9111" points="14 5 14 23 5 23"/>
    <polygon fill="#ED9111" points="59 5 59 23 50 23" transform="matrix(-1 0 0 1 109 0)"/>
    <polygon fill="#FFDD95" points="32 3 50 23 14 23"/>
    <polygon fill="#ED9111" points="32 23 59 61 5 61" transform="matrix(1 0 0 -1 0 84)"/>
    <polygon fill="#FFAF40" points="32 23 50 61 14 61" transform="matrix(1 0 0 -1 0 84)"/>
  </g>
</svg>
