<svg xmlns="http://www.w3.org/2000/svg" width="64" height="64" viewBox="0 0 64 64">
  <g fill="none" fill-rule="evenodd">
    <path fill="#5B68C0" d="M1.35617852,23.8815514 C1.71175131,22.8423993 2.89081239,21.9508949 3.9932317,21.910663 C3.9932317,21.910663 5.61866018,21.741244 9.5,22 C13.3813398,22.258756 13.25,23 17,23 C20.75,23 24.5,22 24.5,22 C24.5,22 28.25,21 32,21 C35.75,21 39.5,22 39.5,22 C39.5,22 43.25,23 47,23 C50.75,23 50.8813398,22.241244 54.5,22 C58.1186602,21.758756 60.0103709,21.9191466 60.0103709,21.9191466 C61.1092127,21.9638007 62.303757,22.8339122 62.6493427,23.8995823 C62.6493427,23.8995823 64,27 64,32 C64,37 62.6438215,40.1184486 62.6438215,40.1184486 C62.2882487,41.1576007 61.1091876,42.0491051 60.0067683,42.089337 C60.0067683,42.089337 58.3813398,42.258756 54.5,42 C50.6186602,41.741244 50.75,41 47,41 C43.25,41 39.5,42 39.5,42 C39.5,42 35.75,43 32,43 C28.25,43 24.5,42 24.5,42 C24.5,42 20.75,41 17,41 C13.25,41 13.1186602,41.758756 9.5,42 C5.88133982,42.241244 3.98962908,42.0808534 3.98962908,42.0808534 C2.89078728,42.0361993 1.69624305,41.1660878 1.35065731,40.1004177 C1.35065731,40.1004177 9.79717439e-16,37 0,32 C0,27 1.35617852,23.8815514 1.35617852,23.8815514 Z"/>
    <rect width="3" height="20" x="16" y="22" fill="#FF5656" rx="1"/>
    <rect width="3" height="20" x="45" y="22" fill="#FF5656" rx="1"/>
  </g>
</svg>
