<svg xmlns="http://www.w3.org/2000/svg" width="64" height="64" viewBox="0 0 64 64">
  <g fill="none" fill-rule="evenodd">
    <rect width="6" height="11" x="29" y="49" fill="#D8D8D8"/>
    <rect width="14" height="1" x="25" y="61" stroke="#979797" stroke-width="2"/>
    <path fill="#868686" d="M2,14.995507 C2,13.3411342 3.33730974,12 4.99593743,12 L59.0040626,12 C60.6586731,12 62,13.3424683 62,14.995507 L62,48.004493 C62,49.6588658 60.6626903,51 59.0040626,51 L4.99593743,51 C3.34132688,51 2,49.6575317 2,48.004493 L2,14.995507 Z"/>
    <rect width="54" height="33" x="5" y="15" fill="#5B68C0"/>
    <path fill="#80D25B" d="M24.3800958,10.2085229 L22.8076118,8.63603897 L25.636039,5.80761184 L27.2085229,7.3800958 C28.0544216,6.84706631 28.9952899,6.45099725 30,6.22301642 L30,4 L34,4 L34,6.22301642 C35.0047101,6.45099725 35.9455784,6.84706631 36.7914771,7.3800958 L38.363961,5.80761184 L41.1923882,8.63603897 L39.6199042,10.2085229 C40.1529337,11.0544216 40.5490027,11.9952899 40.7769836,13 L43,13 L43,17 L40.7769836,17 C40.5490027,18.0047101 40.1529337,18.9455784 39.6199042,19.7914771 L41.1923882,21.363961 L38.363961,24.1923882 L36.7914771,22.6199042 C35.9455784,23.1529337 35.0047101,23.5490027 34,23.7769836 L34,26 L30,26 L30,23.7769836 C28.9952899,23.5490027 28.0544216,23.1529337 27.2085229,22.6199042 L25.636039,24.1923882 L22.8076118,21.363961 L24.3800958,19.7914771 C23.8470663,18.9455784 23.4509973,18.0047101 23.2230164,17 L21,17 L21,13 L23.2230164,13 C23.4509973,11.9952899 23.8470663,11.0544216 24.3800958,10.2085229 Z M32,18 C33.6568542,18 35,16.6568542 35,15 C35,13.3431458 33.6568542,12 32,12 C30.3431458,12 29,13.3431458 29,15 C29,16.6568542 30.3431458,18 32,18 Z"/>
  </g>
</svg>
