<svg xmlns="http://www.w3.org/2000/svg" width="64" height="64" viewBox="0 0 64 64">
  <g fill="none" fill-rule="evenodd" stroke-linecap="round">
    <path stroke="#595959" stroke-width="4" d="M38,47.1496001 L38,51.9916279 C38,57.5190992 33.5207309,62 27.9920273,62 L27.0079727,62 C21.480722,62 17,57.5262041 17,52.0071751 L17,32.9928249 L17,32.9928249 C17,27.4739401 21.4792691,23 27.0079727,23 L27.9920273,23 C33.519278,23 38,27.4824128 38,33.0011599 L38,37.0445967"/>
    <path stroke="#868686" stroke-width="4" d="M28,18.0780833 L28,12.9943528 L28,12.9943528 C28,7.47462417 32.4792691,3 38.0079727,3 L38.9920273,3 C44.519278,3 49,7.47379589 49,12.9928249 L49,32.0071751 C49,37.5260599 44.5207309,42 38.9920273,42 L38.0079727,42 C32.480722,42 28,37.5197581 28,32.0020379 L28,28.1417398"/>
  </g>
</svg>
