<svg xmlns="http://www.w3.org/2000/svg" width="64" height="64" viewBox="0 0 64 64">
  <g fill="none" fill-rule="evenodd">
    <rect width="20" height="15" x="23" y="3" fill="#D8D8D8"/>
    <rect width="5" height="10" x="26" y="6" fill="#868686"/>
    <rect width="5" height="10" x="35" y="6" fill="#868686"/>
    <rect width="24" height="3" x="21" y="18" fill="#4796E7"/>
    <path fill="#FF5EAC" d="M18,21 L48,21 L48,50.9964917 C48,58.178131 42.1801268,64 34.9942481,64 L31.0057519,64 C23.8228735,64 18,58.1784698 18,50.9964917 L18,21 Z"/>
    <circle cx="33" cy="47" r="2" fill="#FFF"/>
    <path stroke="#FFF" stroke-linecap="round" stroke-width="2" d="M28.7573593 51.2426407C29.8431458 52.3284271 31.3431458 53 33 53L33 53C34.6568542 53 36.1568542 52.3284271 37.2426407 51.2426407M25.2218254 54.7781746C27.2124339 56.7687831 29.9624339 58 33 58L33 58C36.0375661 58 38.7875661 56.7687831 40.7781746 54.7781746"/>
  </g>
</svg>
