<svg xmlns="http://www.w3.org/2000/svg" width="64" height="64" viewBox="0 0 64 64">
  <g fill="none" fill-rule="evenodd">
    <path fill="#979797" fill-rule="nonzero" d="M32.176692,17 L41.0186073,62.1920116 C41.1246524,62.7340198 41.6500034,63.0874377 42.1920116,62.9813927 C42.7340198,62.8753476 43.0874377,62.3499966 42.9813927,61.8079884 L33.823308,15 L24.176692,15 L15.0186073,61.8079884 C14.9125623,62.3499966 15.2659802,62.8753476 15.8079884,62.9813927 C16.3499966,63.0874377 16.8753476,62.7340198 16.9813927,62.1920116 L25.823308,17 L32.176692,17 Z"/>
    <polygon fill="#979797" fill-rule="nonzero" points="7 63 51.048 63 51.048 61 7 61"/>
    <circle cx="29" cy="10" r="6" fill="#22BA8E"/>
    <path stroke="#5EA7FF" stroke-linecap="round" stroke-width="2" d="M20.5147186 2C18.3431458 4.17157288 17 7.17157288 17 10.4852814 17 13.7989899 18.3431458 16.7989899 20.5147186 18.9705627M15.5147186 2C13.3431458 4.17157288 12 7.17157288 12 10.4852814 12 13.7989899 13.3431458 16.7989899 15.5147186 18.9705627M10.5147186 2C8.34314575 4.17157288 7 7.17157288 7 10.4852814 7 13.7989899 8.34314575 16.7989899 10.5147186 18.9705627"/>
    <circle cx="39" cy="10" r="4" fill="#80D25B"/>
    <path fill="#979797" fill-rule="nonzero" d="M16.0270887,60.4348872 C15.5619883,60.7327128 15.4263854,61.3511865 15.724211,61.8162869 C16.0220367,62.2813872 16.6405104,62.4169901 17.1056107,62.1191645 L40.3688157,47.2226393 L24.0574166,30.9423687 L34.0797894,19.8392779 C34.4498517,19.4293116 34.4175031,18.7969735 34.0075368,18.4269112 C33.5975705,18.056849 32.9652324,18.0891976 32.5951701,18.4991639 L21.2982689,31.0142161 L37.1946748,46.8802854 L16.0270887,60.4348872 Z"/>
    <path fill="#979797" fill-rule="nonzero" d="M17.9792792,47.2226393 L41.2424842,62.1191645 C41.7075846,62.4169901 42.3260583,62.2813872 42.6238839,61.8162869 C42.9217096,61.3511865 42.7861066,60.7327128 42.3210063,60.4348872 L21.1534202,46.8802854 L37.049826,31.0142161 L25.7529248,18.4991639 C25.3828625,18.0891976 24.7505244,18.056849 24.3405581,18.4269112 C23.9305918,18.7969735 23.8982432,19.4293116 24.2683055,19.8392779 L34.2906784,30.9423687 L17.9792792,47.2226393 Z"/>
  </g>
</svg>
