<svg xmlns="http://www.w3.org/2000/svg" width="64" height="64" viewBox="0 0 64 64">
  <g fill="none" fill-rule="evenodd">
    <path fill="#B4DFFB" d="M33,62 C16.4314575,62 3,48.5685425 3,32 C3,15.4314575 16.4314575,2 33,2 C49.5685425,2 63,15.4314575 63,32 C63,48.5685425 49.5685425,62 33,62 Z M33,36 C35.209139,36 37,34.209139 37,32 C37,29.790861 35.209139,28 33,28 C30.790861,28 29,29.790861 29,32 C29,34.209139 30.790861,36 33,36 Z"/>
    <path fill="#5EA7FF" d="M33,41 C28.0294373,41 24,36.9705627 24,32 C24,27.0294373 28.0294373,23 33,23 C37.9705627,23 42,27.0294373 42,32 C42,36.9705627 37.9705627,41 33,41 Z M33,36 C35.209139,36 37,34.209139 37,32 C37,29.790861 35.209139,28 33,28 C30.790861,28 29,29.790861 29,32 C29,34.209139 30.790861,36 33,36 Z"/>
    <path fill="#0A3586" d="M49.236,28.828 C49.2653335,29.3193358 49.0966685,30.1809938 48.73,31.413 C48.3413314,32.7330066 47.9013358,33.858662 47.41,34.79 C46.815997,35.8973389 46.2733358,36.451 45.782,36.451 C45.5326654,36.451 45.2925012,36.3410011 45.0615,36.121 C44.8304988,35.9009989 44.715,35.6736678 44.715,35.439 C44.715,35.3289995 44.7479997,35.2300004 44.814,35.142 C44.6966661,31.9813175 44.6526665,29.8326723 44.682,28.696 C44.5279992,28.4466654 44.451,28.2596673 44.451,28.135 C44.451,27.9589991 44.549999,27.8050007 44.748,27.673 C44.9240009,27.5483327 45.1073324,27.486 45.298,27.486 C45.4740009,27.486 45.6206661,27.5373328 45.738,27.64 C46.6913381,27.2659981 47.3256651,27.079 47.641,27.079 C47.8096675,27.079 47.9746659,27.1193329 48.136,27.2 C48.3780012,27.3173339 48.6089989,27.5226652 48.829,27.816 C49.0783346,28.153335 49.2139999,28.490665 49.236,28.828 Z M47.74,28.498 C47.6666663,28.4099996 47.5713339,28.366 47.454,28.366 C47.2266655,28.366 46.7793367,28.6299974 46.112,29.158 C46.0679998,29.7080028 46.046,30.3166633 46.046,30.984 C46.046,31.9373381 46.0899996,32.9199949 46.178,33.932 C46.5666686,32.9859953 46.9259983,31.9923385 47.256,30.951 C47.6080018,29.8289944 47.784,29.0810019 47.784,28.707 C47.784,28.6043328 47.7693335,28.5346668 47.74,28.498 Z M55.077,28.476 L53.295,34.944 C53.2876666,34.9733335 53.284,35.0063331 53.284,35.043 C53.284,35.0943336 53.2931666,35.1859993 53.3115,35.318 C53.3298334,35.4500007 53.339,35.5526663 53.339,35.626 C53.339,35.8460011 53.274834,36.0238327 53.1465,36.1595 C53.018166,36.2951673 52.8623343,36.363 52.679,36.363 C52.4076653,36.363 52.1106683,36.2181681 51.788,35.9285 C51.4653317,35.6388319 51.304,35.3620013 51.304,35.098 C51.304,35.0539998 51.3223331,34.9733339 51.359,34.856 C51.3883335,34.7606662 51.3956667,34.6800003 51.381,34.614 L50.127,28.344 C50.1196666,28.2926664 50.0445007,28.2120006 49.9015,28.102 C49.7584993,27.9919995 49.687,27.8746673 49.687,27.75 C49.687,27.4199984 49.9986635,27.255 50.622,27.255 C50.8933347,27.255 51.1408322,27.2989996 51.3645,27.387 C51.5881678,27.4750004 51.7256664,27.5959992 51.777,27.75 C51.7916667,27.7940002 51.799,27.8379998 51.799,27.882 C51.799,27.9480003 51.769667,28.0433327 51.711,28.168 C51.652333,28.2926673 51.6303333,28.3953329 51.645,28.476 L52.437,32.612 L53.559,28.212 C53.5736667,28.1459997 53.581,28.0690004 53.581,27.981 L53.581,27.695 C53.581,27.4676655 53.6836656,27.2880007 53.889,27.156 C54.0210007,27.0753329 54.1823324,27.035 54.373,27.035 C54.6663348,27.035 54.9413321,27.1138325 55.198,27.2715 C55.454668,27.4291675 55.583,27.6143323 55.583,27.827 C55.583,27.885667 55.5683335,27.949833 55.539,28.0195 C55.5096665,28.089167 55.430834,28.1624996 55.3025,28.2395 C55.174166,28.3165004 55.0990001,28.3953329 55.077,28.476 Z M61.116,28.828 C61.1453335,29.3193358 60.9766685,30.1809938 60.61,31.413 C60.2213314,32.7330066 59.7813358,33.858662 59.29,34.79 C58.695997,35.8973389 58.1533358,36.451 57.662,36.451 C57.4126654,36.451 57.1725012,36.3410011 56.9415,36.121 C56.7104988,35.9009989 56.595,35.6736678 56.595,35.439 C56.595,35.3289995 56.6279997,35.2300004 56.694,35.142 C56.5766661,31.9813175 56.5326665,29.8326723 56.562,28.696 C56.4079992,28.4466654 56.331,28.2596673 56.331,28.135 C56.331,27.9589991 56.429999,27.8050007 56.628,27.673 C56.8040009,27.5483327 56.9873324,27.486 57.178,27.486 C57.3540009,27.486 57.5006661,27.5373328 57.618,27.64 C58.5713381,27.2659981 59.2056651,27.079 59.521,27.079 C59.6896675,27.079 59.8546659,27.1193329 60.016,27.2 C60.2580012,27.3173339 60.4889989,27.5226652 60.709,27.816 C60.9583346,28.153335 61.0939999,28.490665 61.116,28.828 Z M59.62,28.498 C59.5466663,28.4099996 59.4513339,28.366 59.334,28.366 C59.1066655,28.366 58.6593367,28.6299974 57.992,29.158 C57.9479998,29.7080028 57.926,30.3166633 57.926,30.984 C57.926,31.9373381 57.9699996,32.9199949 58.058,33.932 C58.4466686,32.9859953 58.8059983,31.9923385 59.136,30.951 C59.4880018,29.8289944 59.664,29.0810019 59.664,28.707 C59.664,28.6043328 59.6493335,28.5346668 59.62,28.498 Z"/>
  </g>
</svg>
