<svg xmlns="http://www.w3.org/2000/svg" width="64" height="64" viewBox="0 0 64 64">
  <g fill="none" fill-rule="evenodd">
    <polygon fill="#ED9111" points="2 13 62 13 62 47 2 47"/>
    <path fill="#595959" d="M2,11 C2,9.8954305 2.89473039,9 3.99630737,9 L60.0036926,9 C61.1062227,9 62,9.88772964 62,11 L62,13 L2,13 L2,11 Z"/>
    <path fill="#595959" d="M2,49.0048815 C2,47.897616 2.89473039,47 3.99630737,47 L60.0036926,47 C61.1062227,47 62,47.8938998 62,49.0048815 L62,52 L2,52 L2,49.0048815 Z" transform="matrix(1 0 0 -1 0 99)"/>
    <rect width="20" height="3" x="22" y="52" fill="#979797"/>
    <path stroke="#595959" stroke-linecap="square" stroke-width="2" d="M16,56 L47,56"/>
  </g>
</svg>
