<svg xmlns="http://www.w3.org/2000/svg" width="64" height="64" viewBox="0 0 64 64">
  <g fill="none" fill-rule="evenodd">
    <path fill="#595959" d="M19,3.00174332 C19,1.89621101 19.8949789,1 20.9970047,1 L43.0029953,1 C44.1059106,1 45,1.88926172 45,3.00174332 L45,33 L42.0032768,38.1705726 L41.2028591,58.797489 C41.138753,60.4495152 39.7507053,61.7887471 38.0863879,61.7887471 L25.9172367,61.7887471 C24.2601633,61.7887471 22.8786614,60.4512608 22.8314546,58.797489 L22.2426606,38.1705726 L19,33 L19,3.00174332 Z"/>
    <circle cx="32" cy="25" r="4" fill="#D8D8D8"/>
    <rect width="14" height="4" x="25" y="1" fill="#E43535"/>
    <path stroke="#D8D8D8" stroke-linecap="round" stroke-width="2" d="M29.0438902,17.9044309 L32.071907,15.153969 L35.1646941,18.115847 M39.1998613,21.939598 L41.9503232,24.9676148 L38.9884452,28.060402 M35.1646941,32.0955691 L32.1366774,34.846031 L29.0438902,31.884153 M25.0087231,28.060402 L22.2582612,25.0323852 L25.2201391,21.939598"/>
    <rect width="7" height="2" x="24" y="42" fill="#D8D8D8"/>
    <rect width="7" height="2" x="24" y="46" fill="#D8D8D8"/>
    <rect width="7" height="2" x="33" y="42" fill="#D8D8D8"/>
    <rect width="7" height="2" x="33" y="46" fill="#D8D8D8"/>
    <rect width="7" height="2" x="24" y="50" fill="#D8D8D8"/>
    <rect width="7" height="2" x="33" y="50" fill="#D8D8D8"/>
    <rect width="7" height="2" x="24" y="54" fill="#D8D8D8"/>
    <rect width="7" height="2" x="33" y="54" fill="#D8D8D8"/>
  </g>
</svg>
