<?xml version="1.0" encoding="UTF-8"?>
<svg width="64px" height="64px" viewBox="0 0 64 64" version="1.1" xmlns="http://www.w3.org/2000/svg" xmlns:xlink="http://www.w3.org/1999/xlink">
    <!-- Generator: Sketch 43.2 (39069) - http://www.bohemiancoding.com/sketch -->
    <title>axe</title>
    <desc>Created with Sketch.</desc>
    <defs></defs>
    <g id="Outdoor-Activities-(142)" stroke="none" stroke-width="1" fill="none" fill-rule="evenodd">
        <path d="M25,2 L34,2 C34,2 36,25.388005 36,37.5 C36,49.611995 35,62 35,62 L22,62 C22,62 27,54.888005 27,37.5 C27,20.111995 25,2 25,2 Z" id="Rectangle-146" fill="#BD7575"></path>
        <path d="M19,6 C19,6 26.5871985,7.51050332 34.5,7 C42.4128015,6.48949668 50,2 50,2 L50,25 C50,25 42.0088341,20.2266614 34.5,19.5 C26.9911659,18.7733386 19,20 19,20 L19,6 Z" id="Rectangle-141" fill="#979797"></path>
        <path d="M46,7 L46,18.2782599" id="Path-40" stroke="#D8D8D8" stroke-width="2" stroke-linecap="round"></path>
    </g>
</svg>