<?xml version="1.0" encoding="UTF-8"?>
<svg width="64px" height="64px" viewBox="0 0 64 64" version="1.1" xmlns="http://www.w3.org/2000/svg" xmlns:xlink="http://www.w3.org/1999/xlink">
    <!-- Generator: Sketch 43.2 (39069) - http://www.bohemiancoding.com/sketch -->
    <title>running</title>
    <desc>Created with Sketch.</desc>
    <defs>
        <path d="M40.8886181,48.2046949 L58.8109964,48.2046949 C58.8109964,48.2046949 63.9684388,41.9925643 61.0962255,38.1483359 C58.2240123,34.3041075 40.7142526,35.5193673 35.9635165,15.1836349 C35.9635165,15.1836349 16.7292358,19.3282776 14.5773204,0 C14.5773204,0 0.582856065,14.7382262 0.582856065,15.150453 L1.26193745,20.9012964 L40.8886181,48.2046949 Z" id="path-1"></path>
    </defs>
    <g id="Outdoor-Activities-(142)" stroke="none" stroke-width="1" fill="none" fill-rule="evenodd">
        <g id="Path-48" transform="translate(2.000000, 3.000000)">
            <mask id="mask-2" fill="white">
                <use xlink:href="#path-1"></use>
            </mask>
            <use id="Mask" fill="#80D25B" xlink:href="#path-1"></use>
            <polyline stroke="#595959" stroke-width="2" stroke-linecap="round" mask="url(#mask-2)" points="-2 7.23976069 4.728759 18.7208292 42.2846753 45.011276 62 45.011276"></polyline>
        </g>
        <path d="M36,51 L12,51" id="Line" stroke="#979797" stroke-width="2" stroke-linecap="square"></path>
        <path d="M22,54 L61,54" id="Line" stroke="#979797" stroke-width="2" stroke-linecap="square"></path>
        <path d="M21.3265829,23.9050216 C20.835676,23.6469366 20.0494742,23.6418288 19.5488517,23.9050216 L18.9754419,24.206481 C18.484535,24.464566 18.1607241,24.2414702 18.2563345,23.6840189 L18.3658461,23.0455177 C18.4596009,22.4988848 18.221509,21.7495841 17.8164969,21.3547948 L17.3525986,20.9026058 C16.9554466,20.5154782 17.0675602,20.1385754 17.6272732,20.0572444 L18.2683648,19.9640883 C18.8172155,19.8843356 19.4562684,19.4263501 19.7065796,18.9191641 L19.9932845,18.3382365 C20.238738,17.8408935 20.6318389,17.8310506 20.8821501,18.3382365 L21.168855,18.9191641 C21.4143085,19.4165071 22.0473568,19.8827572 22.6070698,19.9640883 L23.2481614,20.0572444 C23.797012,20.136997 23.9278481,20.5078166 23.522836,20.9026058 L23.0589377,21.3547948 C22.6617857,21.7419224 22.4139782,22.4880664 22.5095886,23.0455177 L22.6191001,23.6840189 C22.712855,24.2306518 22.4006152,24.4696738 21.8999927,24.206481 L21.3265829,23.9050216 Z" id="Star-2" fill="#5B68C0" transform="translate(20.437717, 21.437717) rotate(29.000000) translate(-20.437717, -21.437717) "></path>
        <path d="M43.4595828,27 L37,28.6577335" id="Path-47" stroke="#979797" stroke-width="2" stroke-linecap="round"></path>
        <path d="M45.4595828,31 L39,32.6577335" id="Path-47-Copy" stroke="#979797" stroke-width="2" stroke-linecap="round"></path>
        <path d="M48.4595828,35 L42,36.6577335" id="Path-47-Copy-2" stroke="#979797" stroke-width="2" stroke-linecap="round"></path>
    </g>
</svg>