<?xml version="1.0" encoding="UTF-8"?>
<svg width="64px" height="64px" viewBox="0 0 64 64" version="1.1" xmlns="http://www.w3.org/2000/svg" xmlns:xlink="http://www.w3.org/1999/xlink">
    <!-- Generator: Sketch 43.2 (39069) - http://www.bohemiancoding.com/sketch -->
    <title>tentnight</title>
    <desc>Created with Sketch.</desc>
    <defs></defs>
    <g id="Outdoor-Activities-(142)" stroke="none" stroke-width="1" fill="none" fill-rule="evenodd">
        <polygon id="Triangle-7-Copy-2" fill="#325AA6" points="32 12 61 60 3 60"></polygon>
        <path d="M11.4811618,7 C6.68524188,7.69127609 3,11.8178503 3,16.8051589 C3,22.2766452 7.43551607,26.7121613 12.9070024,26.7121613 C17.2075077,26.7121613 20.8680193,23.972023 22.2378555,20.1424283 C20.7646308,21.3723712 18.868266,22.1124816 16.7990391,22.1124816 C12.1091936,22.1124816 8.30732272,18.3106107 8.30732272,13.6207653 C8.30732272,10.9439606 9.54587307,8.55643488 11.4811618,7 Z" id="Combined-Shape" fill="#5B68C0"></path>
        <path d="M32,13 L32,9" id="Line-Copy-41" stroke="#5EA7FF" stroke-width="2" stroke-linecap="square"></path>
        <path d="M32,13 L28.8377223,9.83772234" id="Line-Copy-40" stroke="#5EA7FF" stroke-width="2" stroke-linecap="square"></path>
        <path d="M32,13 L35.1622777,9.83772234" id="Line-Copy-39" stroke="#5EA7FF" stroke-width="2" stroke-linecap="square"></path>
        <polygon id="Rectangle-77-Copy-2" fill="#FCC24C" points="32 37 58 60 32 60"></polygon>
        <rect id="Rectangle-75-Copy-2" fill="#FCC24C" x="19" y="42" width="8" height="8"></rect>
        <path d="M1,61 L63.008064,61" id="Line-Copy-38" stroke="#BD7575" stroke-width="2" stroke-linecap="square"></path>
    </g>
</svg>