<?xml version="1.0" encoding="UTF-8"?>
<svg width="64px" height="64px" viewBox="0 0 64 64" version="1.1" xmlns="http://www.w3.org/2000/svg" xmlns:xlink="http://www.w3.org/1999/xlink">
    <!-- Generator: Sketch 43.2 (39069) - http://www.bohemiancoding.com/sketch -->
    <title>tree</title>
    <desc>Created with Sketch.</desc>
    <defs></defs>
    <g id="Outdoor-Activities-(142)" stroke="none" stroke-width="1" fill="none" fill-rule="evenodd">
        <rect id="Rectangle-169" fill="#BD7575" x="20" y="36" width="6" height="27"></rect>
        <path d="M24.5839856,44.0540278 C23.7091745,43.3719494 22.2937616,43.3696602 21.4160144,44.0540278 L20.6336634,44.6640163 C19.7588524,45.3460947 18.6284643,45.1087366 18.1049598,44.1265238 L17.6383512,43.2510607 C17.1165978,42.2721334 15.8244849,41.6943418 14.7442656,41.9625308 L13.7814477,42.2015722 C12.7048418,42.468864 11.7687231,41.7922564 11.6899799,40.6820318 L11.6197947,39.6924697 C11.5413148,38.5859589 10.5959199,37.5325704 9.50000823,37.3382084 L8.5232034,37.1649703 C7.43095754,36.9712585 6.85097174,35.9723928 7.23060519,34.9261245 L7.56897898,33.9935677 C7.94734257,32.9507991 7.51213308,31.603954 6.59002208,30.9806481 L5.76812876,30.4250849 C4.84910221,29.8038639 4.72553407,28.6554533 5.49790215,27.8540504 L6.18632704,27.1397464 C6.95611156,26.3410242 7.10633916,24.9336044 6.51747019,23.9891297 L5.99260121,23.1473034 C5.405702,22.205988 5.75991758,21.106603 6.79147083,20.6886355 L7.71091189,20.3160939 C8.73901461,19.8995244 9.44870358,18.6748855 9.29489745,17.5725504 L9.15780741,16.5900203 C9.00451575,15.4913725 9.77526796,14.6311068 10.8876415,14.6688449 L11.879119,14.7024816 C12.9877716,14.7400936 14.1342103,13.9099867 14.4420614,12.8403949 L14.7164545,11.8870495 C15.0232759,10.8210354 16.0772946,10.3486368 17.0781489,10.8355554 L17.9702274,11.2695542 C18.9677338,11.7548441 20.3526925,11.4628024 21.0689708,10.610896 L21.7074018,9.85157728 C22.4212841,9.00252052 23.57632,8.9996709 24.2925982,9.85157728 L24.9310292,10.610896 C25.6449115,11.4599528 27.0289183,11.7564728 28.0297726,11.2695542 L28.9218511,10.8355554 C29.9193575,10.3502655 30.9756944,10.8174577 31.2835455,11.8870495 L31.5579386,12.8403949 C31.86476,13.906409 33.0085075,14.7402198 34.120881,14.7024816 L35.1123585,14.6688449 C36.2210112,14.631233 36.9959987,15.4876852 36.8421926,16.5900203 L36.7051026,17.5725504 C36.5518109,18.6711982 37.2575349,19.8981263 38.2890881,20.3160939 L39.2085292,20.6886355 C40.2366319,21.1052049 40.5962678,22.2028287 40.0073988,23.1473034 L39.4825298,23.9891297 C38.8956306,24.9304451 39.0413049,26.3383435 39.813673,27.1397464 L40.5020978,27.8540504 C41.2718824,28.6527726 41.1539822,29.801779 40.2318712,30.4250849 L39.4099779,30.9806481 C38.4909514,31.6018691 38.0513876,32.9472993 38.431021,33.9935677 L38.7693948,34.9261245 C39.1477584,35.9688931 38.5727083,36.9706083 37.4767966,37.1649703 L36.4999918,37.3382084 C35.4077459,37.5319202 34.4589486,38.5822452 34.3802053,39.6924697 L34.3100201,40.6820318 C34.2315403,41.7885427 33.2987716,42.4697611 32.2185523,42.2015722 L31.2557344,41.9625308 C30.1791285,41.6952389 28.8851533,42.2688479 28.3616488,43.2510607 L27.8950402,44.1265238 C27.3732868,45.1054511 26.2440837,45.3483839 25.3663366,44.6640163 L24.5839856,44.0540278 Z" id="Star" fill="#22BA8E"></path>
        <path d="M16.7010101,31.5 C16.7010101,29.5670034 15.1340068,28 13.2010101,28" id="Oval-85" stroke="#80D25B" stroke-width="2" stroke-linecap="round" transform="translate(14.951010, 29.750000) rotate(-90.000000) translate(-14.951010, -29.750000) "></path>
        <path d="M24,20 C24,17.2385763 21.7614237,15 19,15" id="Oval-85-Copy" stroke="#80D25B" stroke-width="2" stroke-linecap="round"></path>
        <path d="M14.2333808,22.2666192 C14.2333808,20.0574802 12.4425198,18.2666192 10.2333808,18.2666192" id="Oval-85-Copy-5" stroke="#80D25B" stroke-width="2" stroke-linecap="round" transform="translate(12.233381, 20.266619) rotate(57.000000) translate(-12.233381, -20.266619) "></path>
        <path d="M37.012453,24.8526204 C37.012453,22.0911967 34.7738768,19.8526204 32.012453,19.8526204" id="Oval-85-Copy-4" stroke="#80D25B" stroke-width="2" stroke-linecap="round" transform="translate(34.512453, 24.852620) rotate(-73.000000) translate(-34.512453, -24.852620) "></path>
        <path d="M30.0535135,35.0593323 C30.0535135,32.2979085 27.8149372,30.0593323 25.0535135,30.0593323" id="Oval-85-Copy-3" stroke="#80D25B" stroke-width="2" stroke-linecap="round" transform="translate(27.553513, 35.059332) rotate(70.000000) translate(-27.553513, -35.059332) "></path>
        <path d="M23.5242839,37.9024703 C23.5242839,34.3619747 20.6541452,31.491836 17.1136497,31.491836" id="Oval-85-Copy-2" stroke="#80D25B" stroke-width="2" stroke-linecap="round" transform="translate(20.318967, 34.697153) rotate(-240.000000) translate(-20.318967, -34.697153) "></path>
        <path d="M41,5.48659971 C41,5.48659971 44.8125963,2.11708767 48.2004721,5.52379807 C48.2004721,5.52379807 52.0234274,3.28954225 53.8367296,6.62844805" id="Path-43" stroke="#979797" stroke-width="2" stroke-linecap="round"></path>
        <path d="M49,11.4865997 C49,11.4865997 52.8125963,8.11708767 56.2004721,11.5237981 C56.2004721,11.5237981 60.0234274,9.28954225 61.8367296,12.628448" id="Path-43-Copy" stroke="#979797" stroke-width="2" stroke-linecap="round"></path>
        <path d="M44,17.1723757 C44,17.1723757 47.8125963,13.8028636 51.2004721,17.209574 C51.2004721,17.209574 55.0234274,14.9753182 56.8367296,18.314224" id="Path-43-Copy-2" stroke="#979797" stroke-width="2" stroke-linecap="round"></path>
        <path d="M9,62 L57.0104155,62" id="Line" stroke="#979797" stroke-width="2" stroke-linecap="square"></path>
    </g>
</svg>