<?xml version="1.0" encoding="UTF-8"?>
<svg width="64px" height="64px" viewBox="0 0 64 64" version="1.1" xmlns="http://www.w3.org/2000/svg" xmlns:xlink="http://www.w3.org/1999/xlink">
    <!-- Generator: Sketch 43.2 (39069) - http://www.bohemiancoding.com/sketch -->
    <title>water</title>
    <desc>Created with Sketch.</desc>
    <defs></defs>
    <g id="Outdoor-Activities-(142)" stroke="none" stroke-width="1" fill="none" fill-rule="evenodd">
        <polyline id="Line-Copy-95" stroke="#979797" stroke-width="2" stroke-linecap="square" points="16 23.4453261 32 7.44532608 48 23.4453261"></polyline>
        <path d="M1,26.9932874 C1,25.8924252 1.90035102,25 2.99263021,25 L61.0073698,25 C62.1078691,25 63,25.8997127 63,26.9932874 L63,52.0067126 C63,53.1075748 62.099649,54 61.0073698,54 L2.99263021,54 C1.89213093,54 1,53.1002873 1,52.0067126 L1,26.9932874 Z" id="Rectangle-160-Copy-3" fill="#BD7575"></path>
        <rect id="Rectangle-162-Copy-3" fill="#B4DFFB" x="3" y="27" width="58" height="25"></rect>
        <rect id="Rectangle-161-Copy-7" fill="#AB5F5F" x="10" y="22" width="10" height="3"></rect>
        <rect id="Rectangle-161-Copy-6" fill="#AB5F5F" x="44" y="22" width="10" height="3"></rect>
        <circle id="Oval-80-Copy-3" fill="#D8D8D8" cx="32" cy="9" r="3"></circle>
        <path d="M26.266,36.356 C26.2940001,36.430667 26.308,36.5006663 26.308,36.566 C26.308,36.7153341 26.2240008,36.8973323 26.056,37.112 C25.8506656,37.3640013 25.7246669,37.5599993 25.678,37.7 L24.138,42.348 C24.0913331,42.4973341 24.068,42.6746656 24.068,42.88 L24.068,43.188 C24.0773334,43.3186673 24.082,43.4166663 24.082,43.482 C24.082,43.8273351 23.9653345,44.0839992 23.732,44.252 C23.4986655,44.4200008 23.2326682,44.504 22.934,44.504 C22.4859978,44.504 22.1126682,44.3360017 21.814,44 C21.6646659,43.8319992 21.59,43.6406677 21.59,43.426 C21.59,43.1086651 21.5806668,42.9080004 21.562,42.824 L20.722,39.716 L19.91,42.516 C19.8819999,42.6186672 19.8586668,42.8146652 19.84,43.104 C19.8213332,43.3373345 19.7700004,43.5239993 19.686,43.664 C19.3313316,44.2426696 18.8973359,44.532 18.384,44.532 C18.2066658,44.532 18.0433341,44.4806672 17.894,44.378 C17.7073324,44.2566661 17.5953335,44.0700013 17.558,43.818 C17.5206665,43.5659987 17.4833335,43.3186679 17.446,43.076 L16.214,38.288 C16.1859999,38.1666661 16.1020007,37.9426683 15.962,37.616 C15.8499994,37.3639987 15.794,37.1493342 15.794,36.972 C15.794,36.8506661 15.8173331,36.7293339 15.864,36.608 C15.9480004,36.3466654 16.2839971,36.216 16.872,36.216 C17.1986683,36.216 17.4179994,36.2626662 17.53,36.356 C17.6700007,36.4773339 17.7446666,36.673332 17.754,36.944 C17.7633334,37.3546687 17.7726666,37.5786665 17.782,37.616 L18.622,40.976 L19.798,37.532 C19.8166668,37.4666663 19.826,37.4013337 19.826,37.336 C19.826,37.2799997 19.8143335,37.1983339 19.791,37.091 C19.7676666,36.9836661 19.756,36.9020003 19.756,36.846 C19.756,36.6406656 19.8679989,36.4820006 20.092,36.37 C20.2786676,36.2673328 20.4839989,36.216 20.708,36.216 C21.0160015,36.216 21.2726656,36.2906659 21.478,36.44 C21.7393346,36.6266676 21.8839999,36.8669985 21.912,37.161 C21.9400001,37.4550015 21.9633332,37.7466652 21.982,38.036 L22.822,41.396 L24.166,37.364 C24.1846668,37.3079997 24.194,37.2473337 24.194,37.182 C24.194,37.107333 24.1800001,37.0070006 24.152,36.881 C24.1239999,36.7549994 24.11,36.6593337 24.11,36.594 C24.11,36.5099996 24.1286665,36.430667 24.166,36.356 C24.3060007,36.1039987 24.6746637,35.978 25.272,35.978 C25.8320028,35.978 26.1633328,36.1039987 26.266,36.356 Z M32.454,43.412 C32.3139993,43.8693356 31.9686694,44.098 31.418,44.098 C31.2313324,44.098 31.0820006,44.0653337 30.97,44 C30.8206659,43.8973328 30.7180003,43.6920015 30.662,43.384 C30.5499994,42.8519973 30.4380006,42.4366682 30.326,42.138 C30.2979999,42.6513359 30.0180027,43.171664 29.486,43.699 C28.9539973,44.226336 28.417336,44.49 27.876,44.49 C27.1946633,44.49 26.7233346,44.0373379 26.462,43.132 C26.3686662,42.7959983 26.322,42.4786682 26.322,42.18 C26.322,41.3119957 26.7653289,40.5700031 27.652,39.954 C28.3800036,39.5246645 29.112663,39.1000021 29.85,38.68 C29.8873335,38.5213325 29.906,38.3673341 29.906,38.218 C29.906,37.9286652 29.8266675,37.7583336 29.668,37.707 C29.5093325,37.6556664 29.3740006,37.63 29.262,37.63 C29.065999,37.63 28.9050006,37.6929994 28.779,37.819 L28.422,38.176 C28.3099994,38.250667 28.1653342,38.423332 27.988,38.694 C27.8479993,38.9086677 27.6940008,39.0253332 27.526,39.044 C27.2833321,39.0720001 27.064001,38.988001 26.868,38.792 C26.671999,38.595999 26.574,38.3673346 26.574,38.106 C26.574,37.9566659 26.611333,37.8213339 26.686,37.7 C26.9006677,37.3453316 27.2226645,37.0373346 27.652,36.776 C28.3053366,36.383998 29.1219951,36.188 30.102,36.188 C30.7273365,36.188 31.1566655,36.4866637 31.39,37.084 C31.5393341,37.4853353 31.651333,38.2366612 31.726,39.338 C31.8100004,40.6726733 31.9126661,41.6479969 32.034,42.264 C32.0526668,42.3853339 32.1319993,42.5393324 32.272,42.726 C32.4120007,42.9126676 32.482,43.0759993 32.482,43.216 C32.482,43.2813337 32.4726668,43.3466663 32.454,43.412 Z M30.018,39.968 C29.7379986,40.1173341 29.4603347,40.2713325 29.185,40.43 C28.9096653,40.5886675 28.6553345,40.7986654 28.422,41.06 C28.0859983,41.4426686 27.918,41.769332 27.918,42.04 C27.918,42.2640011 28.0019992,42.4973321 28.17,42.74 C28.2633338,42.8706673 28.3659994,42.936 28.478,42.936 C28.7206679,42.936 28.9843319,42.665336 29.269,42.124 C29.5536681,41.582664 29.8033323,40.8640045 30.018,39.968 Z M37.872,37.644 C37.797333,37.644 37.6806675,37.613667 37.522,37.553 C37.3633325,37.492333 37.2420004,37.462 37.158,37.462 C37.0926663,37.462 37.0273337,37.4759999 36.962,37.504 L36.444,37.77 L36.444,42.558 C36.444,42.7353342 36.5396657,42.9639986 36.731,43.244 C36.9223343,43.5240014 36.9993335,43.7479992 36.962,43.916 C36.9153331,44.1213344 36.7776678,44.2846661 36.549,44.406 C36.3203322,44.5273339 36.0753346,44.588 35.814,44.588 C35.3193309,44.588 34.9786676,44.3686689 34.792,43.93 C34.7359997,43.7993327 34.7033334,43.3840035 34.694,42.684 C34.6846666,42.217331 34.6893332,41.4893383 34.708,40.5 C34.7266668,39.3799944 34.736,38.6706682 34.736,38.372 C34.6799997,38.3906668 34.5866673,38.4536661 34.456,38.561 C34.3253327,38.6683339 34.1946673,38.722 34.064,38.722 C33.9613328,38.722 33.8306675,38.6940003 33.672,38.638 C33.0186634,38.4139989 32.692,38.1853345 32.692,37.952 C32.692,37.8959997 32.7059999,37.8353337 32.734,37.77 C32.7993337,37.6206659 32.9206658,37.5366668 33.098,37.518 C33.368668,37.4806665 33.5319997,37.4480001 33.588,37.42 C33.8026677,37.3359996 34.1946638,37.1353349 34.764,36.818 L34.764,35.6 C34.764,35.5066662 34.7383336,35.3830008 34.687,35.229 C34.6356664,35.0749992 34.61,34.960667 34.61,34.886 C34.61,34.8019996 34.6333331,34.722667 34.68,34.648 C34.9226679,34.2746648 35.2493313,34.088 35.66,34.088 C36.1360024,34.088 36.471999,34.2746648 36.668,34.648 C36.742667,34.7973341 36.78,34.9186662 36.78,35.012 C36.78,35.1240006 36.7240006,35.2406661 36.612,35.362 C36.4999994,35.4833339 36.444,35.5953328 36.444,35.698 L36.444,36.384 C36.6120008,36.309333 36.7986656,36.1833342 37.004,36.006 C37.1626675,35.8753327 37.2979994,35.81 37.41,35.81 C37.4566669,35.81 37.5079997,35.8193332 37.564,35.838 C38.1520029,35.9966675 38.446,36.3513306 38.446,36.902 C38.446,37.0793342 38.3923339,37.2473325 38.285,37.406 C38.1776661,37.5646675 38.0400008,37.644 37.872,37.644 Z M43.85,42.53 C43.775333,42.8846684 43.5233355,43.2626647 43.094,43.664 C43.0286663,43.7666672 42.7720022,43.9019992 42.324,44.07 C41.8106641,44.266001 41.3673352,44.3500001 40.994,44.322 C40.2939965,44.2753331 39.7433353,43.8740038 39.342,43.118 C38.9779982,42.4179965 38.796,41.5593384 38.796,40.542 C38.796,39.4406612 39.0013313,38.4746708 39.412,37.644 C39.8693356,36.7293288 40.4806628,36.2160006 41.246,36.104 C41.3953341,36.0853332 41.5399993,36.076 41.68,36.076 C42.7906722,36.076 43.4019994,36.7573265 43.514,38.12 C43.5700003,38.7453365 43.3226694,39.426663 42.772,40.164 C42.1746637,40.9760041 41.409338,41.5453317 40.476,41.872 C40.5786672,42.2453352 40.6579997,42.4879994 40.714,42.6 C40.8446673,42.8333345 41.0219989,42.95 41.246,42.95 C41.4606677,42.95 41.6893321,42.8660008 41.932,42.698 C42.1373344,42.5579993 42.277333,42.4226673 42.352,42.292 C42.3893335,42.2733332 42.4266665,42.1683343 42.464,41.977 C42.5013335,41.7856657 42.5993325,41.6480004 42.758,41.564 C42.8140003,41.5359999 42.879333,41.522 42.954,41.522 C43.1780011,41.522 43.394999,41.6316656 43.605,41.851 C43.815001,42.0703344 43.8966669,42.2966655 43.85,42.53 Z M41.652,37.602 C41.2786648,37.602 40.9753345,37.8679973 40.742,38.4 C40.4339985,39.1093369 40.3079997,39.8093299 40.364,40.5 C40.8026689,40.3599993 41.2086648,40.0333359 41.582,39.52 C41.9553352,39.0066641 42.142,38.5493353 42.142,38.148 C42.142,37.7839982 41.9786683,37.602 41.652,37.602 Z M50.262,36.86 C50.2246665,37.056001 50.0473349,37.191333 49.73,37.266 C49.3566648,37.3593338 49.1186672,37.4666661 49.016,37.588 L46.734,40.22 L46.734,42.348 C46.734,42.5533344 46.7923328,42.760999 46.909,42.971 C47.0256672,43.1810011 47.084,43.3419994 47.084,43.454 C47.084,43.5660006 47.0513337,43.6919993 46.986,43.832 C46.8273325,44.1866684 46.5053358,44.364 46.02,44.364 C45.6839983,44.364 45.418001,44.2566677 45.222,44.042 C45.0913327,43.9019993 45.026,43.7246677 45.026,43.51 C45.026,43.435333 45.0353332,43.3140008 45.054,43.146 C45.0726668,42.9779992 45.082,42.8426672 45.082,42.74 L45.082,37.504 C45.082,37.4199996 45.044667,37.3173339 44.97,37.196 C44.895333,37.0746661 44.858,36.976667 44.858,36.902 C44.858,36.8459997 44.8766665,36.780667 44.914,36.706 C45.0353339,36.4819989 45.4133302,36.37 46.048,36.37 C46.5426691,36.37 46.8226663,36.4866655 46.888,36.72 C46.9160001,36.8133338 46.93,36.8926663 46.93,36.958 C46.93,37.0606672 46.892667,37.1399997 46.818,37.196 C46.743333,37.2520003 46.706,37.3079997 46.706,37.364 L46.734,37.868 L47.938,36.594 C48.0780007,36.4353325 48.2249992,36.2766675 48.379,36.118 C48.5330008,35.9593325 48.7126656,35.8706668 48.918,35.852 C49.2353349,35.8239999 49.5409985,35.8939992 49.835,36.062 C50.1290015,36.2300008 50.276,36.449332 50.276,36.72 C50.276,36.7666669 50.2713334,36.8133331 50.262,36.86 Z" id="water" fill="#595959"></path>
    </g>
</svg>