<svg xmlns="http://www.w3.org/2000/svg" width="64" height="64" viewBox="0 0 64 64">
  <g fill="none" fill-rule="evenodd">
    <rect width="58" height="58" x="3" y="4" fill="#E43535"/>
    <polygon fill="#0A3586" points="6 7 58 7 58 59 6 59"/>
    <path fill="#E43535" d="M28.56,47.68 C28.3199988,48.34667 27.6266724,48.68 26.48,48.68 C26.1599984,48.68 25.8133352,48.6533336 25.44,48.6 C23.2533224,48.2533316 21.9733352,47.6000048 21.6,46.64 C21.5199996,46.4533324 21.48,46.2666676 21.48,46.08 C21.48,45.5199972 21.7866636,44.9600028 22.4,44.4 C22.2933328,40.39998 22.0533352,32.2400616 21.68,19.92 C21.7066668,19.5733316 21.6133344,19.166669 21.4,18.7 C21.1866656,18.233331 21.08,17.8933344 21.08,17.68 C21.08,17.1999976 21.3866636,16.693336 22,16.16 C22.4266688,15.7866648 23.0266628,15.6 23.8,15.6 C24.6800044,15.6 25.6133284,15.8266644 26.6,16.28 C27.7733392,16.8400028 28.36,17.519996 28.36,18.32 C28.36,18.5066676 28.0800028,19.2266604 27.52,20.48 L27.92,44.72 C27.92,45.0400016 28.0399988,45.4466642 28.28,45.94 C28.5200012,46.4333358 28.64,46.8266652 28.64,47.12 C28.64,47.3066676 28.6133336,47.4933324 28.56,47.68 Z M45.44,47.76 C45.1199984,48.4800036 44.1333416,48.84 42.48,48.84 C41.4399948,48.84 40.7466684,48.6266688 40.4,48.2 C40.266666,48.066666 40.2,47.8800012 40.2,47.64 C40.2,47.4533324 40.266666,47.160002 40.4,46.76 C40.533334,46.359998 40.6133332,46.0533344 40.64,45.84 C39.4133272,47.573342 37.9733416,48.44 36.32,48.44 C34.1066556,48.44 32.4933384,47.1866792 31.48,44.68 C30.7066628,42.7599904 30.32,40.266682 30.32,37.2 C30.32,34.3733192 30.919994,31.8000116 32.12,29.48 C33.45334,26.946654 35.0933236,25.68 37.04,25.68 C38.1333388,25.68 39.2533276,26.5599912 40.4,28.32 L40.4,23.16 C40.4,22.7333312 40.2266684,22.18667 39.88,21.52 C39.5333316,20.85333 39.36,20.3466684 39.36,20 C39.36,19.733332 39.426666,19.466668 39.56,19.2 C40.1200028,17.999994 41.2133252,17.4 42.84,17.4 C44.17334,17.4 44.9999984,17.8799952 45.32,18.84 C45.4266672,19.1600016 45.48,19.4666652 45.48,19.76 C45.48,20.0533348 45.3933342,20.4466642 45.22,20.94 C45.0466658,21.4333358 44.96,21.8533316 44.96,22.2 L44.96,45 C44.96,45.2933348 45.0666656,45.6466646 45.28,46.06 C45.4933344,46.4733354 45.6,46.813332 45.6,47.08 C45.6,47.2933344 45.5466672,47.5199988 45.44,47.76 Z M39.92,37.2 C39.92,35.9733272 39.6666692,34.5333416 39.16,32.88 C38.5999972,31.1199912 38.053336,30.24 37.52,30.24 C36.9066636,30.24 36.4133352,31.0533252 36.04,32.68 C35.7466652,34.01334 35.6,35.5199916 35.6,37.2 C35.6,37.4933348 35.5866668,37.97333 35.56,38.64 L35.56,40.12 C35.56,43.1333484 36.2133268,44.64 37.52,44.64 C38.1333364,44.64 38.6933308,43.773342 39.2,42.04 C39.6800024,40.439992 39.92,38.8266748 39.92,37.2 Z"/>
  </g>
</svg>
