<svg xmlns="http://www.w3.org/2000/svg" width="64" height="64" viewBox="0 0 64 64">
  <g fill="none" fill-rule="evenodd">
    <polygon fill="#595959" points="4 15 60 15 60 50 4 50"/>
    <rect width="52" height="31" x="6" y="17" fill="#E8E8E8"/>
    <path stroke="#979797" stroke-linecap="round" stroke-width="2" d="M40,13 C40,8.581722 36.418278,5 32,5 C27.581722,5 24,8.581722 24,13"/>
    <rect width="22" height="21" x="21" y="13" fill="#0A3586"/>
    <circle cx="32" cy="20" r="3" fill="#D8D8D8"/>
    <rect width="4" height="6" x="30" y="22" fill="#D8D8D8"/>
    <path fill="#4796E7" d="M0,50 L64,50 L64,52.5 C64,53.8807119 62.8891602,55 61.4911242,55 L2.50887585,55 C1.12326198,55 0,53.8903379 0,52.5 L0,50 Z"/>
  </g>
</svg>
