<svg xmlns="http://www.w3.org/2000/svg" width="64" height="64" viewBox="0 0 64 64">
  <g fill="none" fill-rule="evenodd">
    <path fill="#4796E7" d="M26.1109131,3.31801847 L31.1109131,3.31801847 L32.0602934,68.0108203 C32.0882499,69.9158348 30.5747334,71.4601541 28.6724337,71.4601541 L28.5493925,71.4601541 C26.6503728,71.4601541 25.1334394,69.9251639 25.1615328,68.0108203 L26.1109131,3.31801847 Z" transform="rotate(45 28.61 37.39)"/>
    <path fill="#FFAF40" d="M54.7731952,21.5413286 C53.7991754,21.0292561 52.2158556,21.0314231 51.2459576,21.5413286 L47.0859089,23.7283957 C46.1118891,24.2404682 45.4738773,23.7717639 45.6591113,22.6917666 L46.4536099,18.0594842 C46.6396311,16.9748973 46.1482975,15.4697403 45.3636336,14.704882 L41.9980834,11.4242813 C41.2100849,10.6561726 41.4586927,9.90454972 42.5430716,9.74698023 L47.1941475,9.07113934 C48.2831347,8.91290024 49.5627936,7.98049514 50.0477426,6.99788115 L52.127767,2.78329139 C52.6147769,1.79650161 53.4064368,1.8006774 53.8913858,2.78329139 L55.9714102,6.99788115 C56.45842,7.98467093 57.7406263,8.91356986 58.8250053,9.07113934 L63.4760812,9.74698023 C64.5650684,9.90521933 64.8057333,10.659423 64.0210694,11.4242813 L60.6555192,14.704882 C59.8675207,15.4729907 59.3803088,16.9794869 59.5655429,18.0594842 L60.3600415,22.6917666 C60.5460627,23.7763535 59.9031419,24.2383012 58.9332439,23.7283957 L54.7731952,21.5413286 Z" transform="rotate(45 53.01 12.99)"/>
  </g>
</svg>
