<svg xmlns="http://www.w3.org/2000/svg" width="64" height="64" viewBox="0 0 64 64">
  <g fill="none" fill-rule="evenodd">
    <path fill="#595959" d="M18,4 L46,4 L46,47.9967971 C46,55.7305525 39.7336865,62 32,62 L32,62 C24.2680135,62 18,55.7378767 18,47.9967971 L18,4 Z"/>
    <rect width="4" height="4" x="23" y="10" fill="#D8D8D8"/>
    <rect width="4" height="4" x="23" y="18" fill="#D8D8D8"/>
    <rect width="4" height="4" x="30" y="18" fill="#D8D8D8"/>
    <rect width="4" height="4" x="37" y="10" fill="#D8D8D8"/>
    <rect width="4" height="4" x="37" y="18" fill="#D8D8D8"/>
    <rect width="4" height="4" x="23" y="26" fill="#D8D8D8"/>
    <rect width="4" height="4" x="23" y="34" fill="#D8D8D8"/>
    <rect width="4" height="4" x="30" y="34" fill="#D8D8D8"/>
    <rect width="4" height="4" x="30" y="26" fill="#D8D8D8"/>
    <rect width="4" height="4" x="37" y="26" fill="#D8D8D8"/>
    <rect width="4" height="4" x="37" y="34" fill="#D8D8D8"/>
    <rect width="6" height="3" x="29" y="4" fill="#F5413E"/>
    <path fill="#979797" d="M30,48 L25,48 L25,52 L30,52 L30,57 L34,57 L34,52 L39,52 L39,48 L34,48 L34,43 L30,43 L30,48 Z"/>
  </g>
</svg>
