<svg xmlns="http://www.w3.org/2000/svg" width="64" height="64" viewBox="0 0 64 64">
  <g fill="none" fill-rule="evenodd">
    <circle cx="52.885" cy="13.115" r="3.5" fill="#FB3A3A" transform="rotate(45 52.885 13.115)"/>
    <path fill="#FFAF40" d="M14.8644315,43.1262812 C15.1170459,45.9295312 17.4729887,48.1262812 20.34201,48.1262812 C23.2110313,48.1262812 25.5669741,45.9295312 25.8195885,43.1262812 L14.8644315,43.1262812 Z" transform="rotate(45 20.342 45.626)"/>
    <path fill="#FFAF40" d="M21.881136,34.9912972 C21.881136,30.572563 20.3577561,28.098911 20.3577561,24.1422439 C20.3577561,14.3790768 28.2723668,6.46446609 38.0355339,6.46446609 C47.798701,6.46446609 55.7133117,14.3790768 55.7133117,24.1422439 C55.7133117,28.098911 53.8073521,30.5469206 53.8073521,34.9912972 C53.8073521,39.4356737 58.5767651,47.7079684 58.5767651,47.7079684 C59.1062785,48.6780553 58.6374178,49.4644661 57.5335343,49.4644661 L18.5375335,49.4644661 C17.4318597,49.4644661 16.9461182,48.670527 17.4423424,47.6796542 C17.4423424,47.6796542 21.881136,39.4100314 21.881136,34.9912972 Z" transform="rotate(45 38.036 27.964)"/>
    <path fill="#56E287" fill-rule="nonzero" d="M13.1794383 43.8177533L9.21100348 43.7781979C8.65874616 43.7726933 8.20659077 44.2159239 8.20108615 44.7681812 8.19558152 45.3204386 8.63881216 45.7725939 9.19106947 45.7780986L13.1595043 45.8176539C13.7117616 45.8231586 14.163917 45.3799279 14.1694217 44.8276706 14.1749263 44.2754133 13.7316956 43.8232579 13.1794383 43.8177533zM22.0395057 56.9584679L21.9999503 52.990033C21.9944457 52.4377757 21.5422903 51.994545 20.990033 52.0000497 20.4377757 52.0055543 19.994545 52.4577097 20.0000497 53.009967L20.039605 56.9784019C20.0451097 57.5306592 20.497265 57.9738898 21.0495224 57.9683852 21.6017797 57.9628806 22.0450103 57.5107252 22.0395057 56.9584679zM15.7017128 48.9280907L13.5803924 51.0494111C13.1898681 51.4399353 13.1898681 52.0731003 13.5803924 52.4636246 13.9709167 52.8541489 14.6040817 52.8541489 14.994606 52.4636246L17.1159263 50.3423043C17.5064506 49.95178 17.5064506 49.318615 17.1159263 48.9280907 16.725402 48.5375664 16.092237 48.5375664 15.7017128 48.9280907z"/>
  </g>
</svg>
