<svg xmlns="http://www.w3.org/2000/svg" width="64" height="64" viewBox="0 0 64 64">
  <g fill="none" fill-rule="evenodd">
    <polygon fill="#4796E7" points="12 6 19 6 19 57.833 12 57.833"/>
    <path fill="#5B68C0" d="M19,6 L51.0000796,6 C52.1046051,6 53,6.89493844 53,8.00138927 L53,54 L19,54 L19,6 Z"/>
    <path fill="#80D25B" d="M40.5044647,36.529591 C43.2658885,36.529591 45.5044647,34.1876959 45.5044647,31.2988218 C45.5044647,28.4099477 40.5044647,19.529591 40.5044647,19.529591 C40.5044647,19.529591 35.5044647,28.4099477 35.5044647,31.2988218 C35.5044647,34.1876959 37.743041,36.529591 40.5044647,36.529591 Z" transform="rotate(75 40.504 28.03)"/>
    <path stroke="#22BA8E" stroke-linecap="round" stroke-width="2" d="M37,29 C30.372583,29 25,34.372583 25,41"/>
    <path fill="#ECECEC" d="M12,57.5 C12,55.5670034 13.5571833,54 15.4956369,54 L53,54 L53,61 L15.4956369,61 C13.56505,61 12,59.4290634 12,57.5 L12,57.5 Z"/>
  </g>
</svg>
