<svg xmlns="http://www.w3.org/2000/svg" width="64" height="64" viewBox="0 0 64 64">
  <g fill="none" fill-rule="evenodd">
    <path fill="#80D25B" d="M48.5044647,26.529591 C51.2658885,26.529591 53.5044647,24.1876959 53.5044647,21.2988218 C53.5044647,18.4099477 48.5044647,9.52959101 48.5044647,9.52959101 C48.5044647,9.52959101 43.5044647,18.4099477 43.5044647,21.2988218 C43.5044647,24.1876959 45.743041,26.529591 48.5044647,26.529591 Z" transform="rotate(75 48.504 18.03)"/>
    <path fill="#80D25B" d="M18.5044647,26.529591 C21.2658885,26.529591 23.5044647,24.1876959 23.5044647,21.2988218 C23.5044647,18.4099477 18.5044647,9.52959101 18.5044647,9.52959101 C18.5044647,9.52959101 13.5044647,18.4099477 13.5044647,21.2988218 C13.5044647,24.1876959 15.743041,26.529591 18.5044647,26.529591 Z" transform="scale(-1 1) rotate(75 0 -6.086)"/>
    <path stroke="#22BA8E" stroke-linecap="round" stroke-width="2" d="M45,19 C38.372583,19 33,24.372583 33,31"/>
    <path stroke="#22BA8E" stroke-linecap="round" stroke-width="2" d="M33,19 C26.372583,19 21,24.372583 21,31" transform="matrix(-1 0 0 1 54 0)"/>
    <rect width="26" height="18" x="4.25" y="35" fill="#D8D8D8" rx="6"/>
    <rect width="18" height="10" x="8.25" y="39" fill="#E3F4FF" rx="3"/>
    <rect width="26" height="18" x="36.25" y="35" fill="#D8D8D8" rx="6"/>
    <path fill="#D8D8D8" fill-rule="nonzero" d="M40.25,43 C40.25,39.1340068 37.1159932,36 33.25,36 C29.3840068,36 26.25,39.1340068 26.25,43 L30.25,43 C30.25,41.3431458 31.5931458,40 33.25,40 C34.9068542,40 36.25,41.3431458 36.25,43 L40.25,43 Z"/>
    <rect width="18" height="10" x="40.25" y="39" fill="#E3F4FF" rx="3"/>
    <rect width="3" height="4" x="2.25" y="42" fill="#D8D8D8"/>
    <rect width="3" height="4" x="61.25" y="42" fill="#D8D8D8"/>
  </g>
</svg>
